# xmcd
#
# Track frame offsets: 
#        150
#        28696
#        55288
#        88316
#        110272
#        128101
#        162958
#        177920
#        201541
#        226527
#
# Disc length: 3236 seconds
#
# Revision: 0
# Processed by: cddbd v1.5.2PL0 Copyright (c) Steve Scherf et al.
# Submitted via: ExactAudioCopy v0.99pb5
#
DISCID=820ca20a
DTITLE=Charles Walker Blues Band - Keep Takin'
DYEAR=2005
DGENRE=Blues
TTITLE0=I Got Ways
TTITLE1=Broken Child
TTITLE2=Trouble
TTITLE3=Cryin and Moanin
TTITLE4=Jack Daniels
TTITLE5=Hot Gritz
TTITLE6=Keep Takin
TTITLE7=What's the Matter
TTITLE8=Melancholy Blues
TTITLE9=Find Me a Man
EXTD=
EXTT0=
EXTT1=
EXTT2=
EXTT3=
EXTT4=
EXTT5=
EXTT6=
EXTT7=
EXTT8=
EXTT9=
PLAYORDER=
